<?xml version="1.0" standalone="no"?>
<!DOCTYPE svg PUBLIC "-//W3C//DTD SVG 20010904//EN"
 "http://www.w3.org/TR/2001/REC-SVG-20010904/DTD/svg10.dtd">
<svg version="1.0" xmlns="http://www.w3.org/2000/svg"
 width="16.000000pt" height="16.000000pt" viewBox="0 0 16.000000 16.000000"
 preserveAspectRatio="xMidYMid meet">
<metadata>
Created by potrace 1.11, written by Peter Selinger 2001-2013
</metadata>
<g transform="translate(0.000000,16.000000) scale(0.002051,-0.002051)"
fill="#000000" stroke="none">
<path d="M3590 7789 c-1108 -97 -2097 -632 -2772 -1500 -70 -91 -198 -273
-198 -283 0 -3 1476 -6 3280 -6 1804 0 3280 3 3280 6 0 10 -128 192 -198 283
-287 369 -622 671 -1039 934 -145 91 -496 264 -663 326 -312 115 -607 187
-935 227 -155 19 -603 27 -755 13z"/>
<path d="M291 5383 c-35 -68 -181 -521 -181 -565 0 -17 110 -18 3791 -18
l3792 0 -7 38 c-9 58 -83 294 -134 432 l-47 125 -3602 3 c-3423 2 -3603 1
-3612 -15z"/>
<path d="M7 4133 c-9 -88 -9 -378 0 -465 l6 -68 3887 0 3887 0 6 68 c9 87 9
377 0 465 l-6 67 -3887 0 -3887 0 -6 -67z"/>
<path d="M114 2963 c9 -59 83 -295 134 -433 l47 -125 3605 0 3605 0 47 125
c49 131 122 368 134 433 l6 37 -3792 0 -3793 0 7 -37z"/>
<path d="M620 1794 c0 -10 128 -192 198 -283 477 -613 1118 -1067 1852 -1311
423 -141 765 -195 1230 -195 465 0 807 54 1230 195 734 244 1375 698 1852
1311 70 91 198 273 198 283 0 3 -1476 6 -3280 6 -1804 0 -3280 -3 -3280 -6z"/>
</g>
</svg>
