<?xml version="1.0" standalone="no"?>
<!DOCTYPE svg PUBLIC "-//W3C//DTD SVG 20010904//EN"
 "http://www.w3.org/TR/2001/REC-SVG-20010904/DTD/svg10.dtd">
<svg version="1.0" xmlns="http://www.w3.org/2000/svg"
 width="16.000000pt" height="16.000000pt" viewBox="0 0 16.000000 16.000000"
 preserveAspectRatio="xMidYMid meet">
<metadata>
Created by potrace 1.11, written by Peter Selinger 2001-2013
</metadata>
<g transform="translate(0.000000,16.000000) scale(0.002286,-0.002286)"
fill="#000000" stroke="none">
<path d="M3285 6994 c-305 -30 -421 -48 -631 -99 -476 -117 -944 -348 -1339
-661 -141 -113 -436 -408 -549 -549 -409 -516 -656 -1108 -742 -1780 -25 -196
-25 -614 0 -810 86 -672 333 -1264 742 -1780 113 -141 408 -436 549 -549 516
-409 1108 -656 1780 -742 196 -25 614 -25 810 0 672 86 1264 333 1780 742 141
113 436 408 549 549 409 516 656 1108 742 1780 25 196 25 614 0 810 -86 672
-333 1264 -742 1780 -113 141 -408 436 -549 549 -515 408 -1109 657 -1775 741
-117 15 -536 28 -625 19z m510 -1324 c403 -46 817 -220 1135 -477 161 -130
469 -479 444 -503 -18 -17 -1004 -680 -1012 -680 -4 0 -22 23 -41 50 -45 67
-167 181 -255 238 -88 58 -209 107 -330 134 -128 28 -322 21 -449 -16 -405
-120 -677 -458 -704 -877 -27 -427 254 -838 662 -968 395 -126 826 7 1066 329
31 42 56 67 63 63 10 -6 924 -671 969 -705 17 -13 14 -20 -54 -108 -404 -523
-1005 -833 -1664 -857 -545 -20 -1074 162 -1495 515 -886 742 -1038 2060 -346
2990 90 121 261 300 371 389 318 257 703 424 1100 477 121 17 417 20 540 6z"/>
</g>
</svg>
